<?xml version="1.0" encoding="UTF-8" standalone="no"?>
<svg
   version="1.1"
   id="svg2"
   width="1056.6592"
   height="1116.5859"
   viewBox="0 0 1056.6592 1116.5859"
   sodipodi:docname="angular.svg"
   inkscape:version="1.1.2 (0a00cf5339, 2022-02-04)"
   xmlns:inkscape="http://www.inkscape.org/namespaces/inkscape"
   xmlns:sodipodi="http://sodipodi.sourceforge.net/DTD/sodipodi-0.dtd"
   xmlns="http://www.w3.org/2000/svg"
   xmlns:svg="http://www.w3.org/2000/svg">
  <sodipodi:namedview
     id="namedview6"
     pagecolor="#ffffff"
     bordercolor="#666666"
     borderopacity="1.0"
     inkscape:pageshadow="2"
     inkscape:pageopacity="0.0"
     inkscape:pagecheckerboard="0"
     showgrid="false"
     inkscape:zoom="0.56796875"
     inkscape:cx="516.75378"
     inkscape:cy="558.1293"
     inkscape:window-width="1920"
     inkscape:window-height="1019"
     inkscape:window-x="0"
     inkscape:window-y="0"
     inkscape:window-maximized="1"
     inkscape:current-layer="svg2" />
  <defs
     id="defs6" />
  <g
     id="g8"
     transform="translate(-111.67037,-81.707013)">
    <path
       style="fill:#000000;stroke-width:0.754642"
       d="m 501.67435,1120.0111 c -120.55516,-68.7593 -137.1457,-78.4335 -136.7983,-79.7704 0.21742,-0.8368 12.75973,-31.4053 27.87178,-67.92998 l 27.47645,-66.40848 h 219.77567 219.77569 l 27.47644,66.40848 c 15.11207,36.52468 27.65437,67.09318 27.87185,67.93008 0.34744,1.3371 -16.24721,11.0083 -136.93307,79.8033 -75.53057,43.0551 -137.77715,78.2671 -138.32562,78.2489 -0.54848,-0.019 -62.73438,-35.2449 -138.19089,-78.2819 z M 131.14643,569.52033 C 120.85388,406.30095 112.26119,271.55402 112.05155,270.08272 l -0.38118,-2.67508 201.19923,-93.05451 c 110.65958,-51.17999 201.38343,-92.87032 201.60853,-92.64521 0.43325,0.43325 -363.59533,784.53752 -364.24067,784.56114 -0.20754,0.007 -8.79849,-133.52934 -19.09103,-296.74873 z m 816.10238,-95.3341 C 847.07381,258.54828 765.29668,81.93304 765.5218,81.70792 c 0.22509,-0.22511 90.94895,41.46522 201.60849,92.64521 l 201.19931,93.05451 -0.3817,2.67508 c -0.2099,1.4713 -8.8026,136.21823 -19.0949,299.43761 -10.2922,163.21939 -18.883,296.75629 -19.0905,296.74873 -0.2075,-0.007 -82.3388,-176.44491 -182.51369,-392.08283 z m -451.39195,255.3185 c -0.007,-1.20698 143.63866,-350.70337 144.14309,-350.70337 0.50444,0 144.15146,349.49639 144.14314,350.70337 -0.007,0.75133 -29.34046,0.9433 -144.14314,0.9433 -114.80268,0 -144.1379,-0.19197 -144.14309,-0.9433 z"
       id="path881" />
  </g>
</svg>
