<?xml version="1.0" encoding="UTF-8" standalone="no"?>

<svg
   width="210mm"
   height="26mm"
   viewBox="0 0 210 26"
   version="1.1"
   id="svg5"
   inkscape:version="1.2.1 (9c6d41e410, 2022-07-14)"
   sodipodi:docname="master_mind_logo.svg"
   xmlns:inkscape="http://www.inkscape.org/namespaces/inkscape"
   xmlns:sodipodi="http://sodipodi.sourceforge.net/DTD/sodipodi-0.dtd"
   xmlns="http://www.w3.org/2000/svg"
   xmlns:svg="http://www.w3.org/2000/svg">
  <sodipodi:namedview
     id="namedview7"
     pagecolor="#ffffff"
     bordercolor="#000000"
     borderopacity="0.25"
     inkscape:showpageshadow="2"
     inkscape:pageopacity="0.0"
     inkscape:pagecheckerboard="0"
     inkscape:deskcolor="#d1d1d1"
     inkscape:document-units="mm"
     showgrid="false"
     inkscape:zoom="1.4912879"
     inkscape:cx="334.27483"
     inkscape:cy="59.679959"
     inkscape:window-width="1920"
     inkscape:window-height="1017"
     inkscape:window-x="1912"
     inkscape:window-y="-8"
     inkscape:window-maximized="1"
     inkscape:current-layer="layer1" />
  <defs
     id="defs2" />
  <g
     inkscape:label="Layer 1"
     inkscape:groupmode="layer"
     id="layer1">
    <g
       id="g13833"
       transform="translate(-0.64206616,-100.78887)"
       style="fill:#000000;stroke:none">
      <path
         style="color:#000000;-inkscape-font-specification:'Moirai One';fill:#000000;stroke-linecap:round;stroke-linejoin:round;-inkscape-stroke:none;stroke:none"
         d="m 12.494141,100.97266 c -1.348115,0 -2.599893,0.41254 -3.6074222,1.22265 -1.0453811,0.8363 -1.6566412,2.1161 -1.8847657,3.64453 l -2.3730469,15.78907 0.00195,-0.004 c -0.1741868,1.11978 0.055319,2.22935 0.7050781,3.0957 a 1.0001,1.0001 0 0 0 0.011719,0.0156 c 0.6644737,0.85052 1.6500874,1.38537 2.7636719,1.55859 a 1.0001,1.0001 0 0 0 0.00781,0.002 l 1.8554688,0.27343 a 1.0001,1.0001 0 0 0 0.015625,0.002 c 0.998107,0.13133 2.003859,-0.13416 2.800782,-0.74219 0.806291,-0.60086 1.352155,-1.47893 1.511718,-2.46289 a 1.0001,1.0001 0 0 0 0,-0.002 l 0.904297,-5.70507 c 0.304703,0.28564 0.576981,0.62478 0.91211,0.85937 a 1.0001,1.0001 0 0 0 0.01172,0.01 c 0.777556,0.52674 1.675017,0.81054 2.59961,0.81054 0.933851,0 1.835116,-0.30641 2.582031,-0.87304 a 1.0001,1.0001 0 0 0 0.01758,-0.0117 c 0.647112,-0.51323 1.204691,-1.08185 1.666016,-1.70313 l 0.0059,-0.008 1.029297,-1.36133 a 1,1 0 0 0 -0.195313,-1.40039 1,1 0 0 0 -1.40039,0.19531 l -1.035156,1.36915 a 1.0001,1.0001 0 0 0 -0.0059,0.008 c -0.345776,0.46679 -0.776584,0.90589 -1.296875,1.32031 -0.427505,0.32282 -0.842984,0.46484 -1.367187,0.46484 -0.535061,0 -0.995307,-0.14251 -1.47461,-0.46679 h -0.002 c -0.521468,-0.36679 -1.006832,-0.82262 -1.457031,-1.38086 l 0.03516,0.0449 c -0.127933,-0.17915 -0.319938,-0.37143 -0.595703,-0.48633 -0.275765,-0.1149 -0.60802,-0.11624 -0.857422,-0.0449 a 1.0001,1.0001 0 0 0 -0.04101,0.0117 c -0.517003,0.17232 -0.821193,0.69249 -0.904297,1.0664 a 1.0001,1.0001 0 0 0 -0.01172,0.0606 l -1.09375,6.90235 c -0.08337,0.51413 -0.286921,0.85161 -0.734375,1.18359 a 1.0001,1.0001 0 0 0 -0.01172,0.01 c -0.418874,0.32117 -0.789715,0.42071 -1.330078,0.34961 L 8.4101159,124.3188 h 0.00781 c -0.707028,-0.10998 -1.1359632,-0.36662 -1.4843751,-0.80859 -0.319236,-0.42931 -0.4372109,-0.87686 -0.328125,-1.57813 a 1.0001,1.0001 0 0 0 0.00195,-0.006 l 2.3730469,-15.78906 c 0.1775137,-1.18934 0.5790781,-1.91717 1.1562503,-2.37891 a 1.0001,1.0001 0 0 0 0.002,-0.002 c 0.655225,-0.52737 1.392381,-0.7832 2.355469,-0.7832 0.644609,0 1.279789,0.15575 1.947265,0.49804 a 1.0001,1.0001 0 0 0 0.0078,0.004 c 0.581707,0.29085 1.090334,0.81553 1.527344,1.70703 a 1.0001,1.0001 0 0 0 0.0039,0.006 l 1.582031,3.16406 c 0.159812,0.31948 0.661421,0.67578 1.076172,0.67578 0.150631,0 0.341027,-0.0142 0.570312,-0.1289 0.229285,-0.11465 0.473394,-0.37891 0.5625,-0.64649 l -0.03711,0.0899 1.492187,-3.34571 h -0.002 c 0.352337,-0.78856 0.788893,-1.2415 1.351563,-1.51562 a 1.0001,1.0001 0 0 0 0.0098,-0.006 c 0.692023,-0.346 1.34172,-0.50195 1.986329,-0.50195 0.527893,0 1.027727,0.10872 1.535156,0.33789 a 1.0001,1.0001 0 0 0 0.0098,0.004 c 0.489325,0.21408 0.905315,0.54091 1.28125,1.03125 a 1.0001,1.0001 0 0 0 0.0098,0.0117 c 0.333743,0.42081 0.584152,1.0148 0.707031,1.83985 a 1.0001,1.0001 0 0 0 0,0.002 l 2.373047,15.72851 a 1.0001,1.0001 0 0 0 0.002,0.004 c 0.110295,0.70904 -0.0037,1.18676 -0.318359,1.64063 -0.326172,0.45019 -0.648644,0.64455 -1.167969,0.71289 a 1.0001,1.0001 0 0 0 -0.01563,0.002 l -1.855469,0.27344 a 1.0001,1.0001 0 0 0 -0.0039,0.002 c -0.736118,0.11202 -1.191245,-0.007 -1.589844,-0.30078 -0.417117,-0.32236 -0.623084,-0.66691 -0.708984,-1.21094 a 1.0001,1.0001 0 0 0 -0.002,-0.006 l -0.732422,-4.44726 a 1,1 0 0 0 -1.150391,-0.82422 1,1 0 0 0 -0.824218,1.15039 l 0.732422,4.43945 c 2.3e-4,0.001 0.0017,0.002 0.002,0.004 v 0.004 c 0.158446,0.99038 0.680867,1.87929 1.472656,2.48633 a 1.0001,1.0001 0 0 0 0.01367,0.01 c 0.857813,0.63643 1.960858,0.84337 3.08789,0.67187 l 1.835938,-0.27148 c 1.01841,-0.134 1.932703,-0.6923 2.537109,-1.5332 a 1.0001,1.0001 0 0 0 0.0078,-0.0117 c 0.615612,-0.88328 0.827545,-1.98392 0.654297,-3.09766 l 0.002,0.004 -2.373047,-15.72657 v -0.002 c -0.160876,-1.07842 -0.52054,-2.02496 -1.117188,-2.7793 -0.554841,-0.72042 -1.2495,-1.28446 -2.052734,-1.63671 -0.748383,-0.33705 -1.542912,-0.51172 -2.351562,-0.51172 -0.976694,0 -1.947506,0.24878 -2.876954,0.71289 -1.016893,0.49704 -1.796228,1.37997 -2.294921,2.49609 a 1.0001,1.0001 0 0 0 -0.002,0 l -0.792968,1.7832 -0.832032,-1.66406 -0.0039,-0.008 c -0.574957,-1.16952 -1.382434,-2.08148 -2.416015,-2.60156 -0.0012,-6.1e-4 -0.0027,6e-4 -0.0039,0 -0.913472,-0.46781 -1.878782,-0.71875 -2.855468,-0.71875 z"
         id="path5677" />
      <path
         style="color:#000000;-inkscape-font-specification:'Moirai One';fill:#000000;stroke-linecap:round;stroke-linejoin:round;stroke:none"
         d="m 40.148437,109.82617 c -2.015868,0 -3.804927,0.75026 -5.117187,2.17969 a 1.0001,1.0001 0 0 0 -0.0059,0.006 c -1.317511,1.46123 -1.931641,3.48589 -1.931641,5.90234 v 0.63867 c 0,1.7162 0.289989,3.20075 0.9375,4.42383 0.625874,1.18221 1.515442,2.11857 2.626953,2.72266 a 1.0001,1.0001 0 0 0 0.01563,0.008 c 1.080515,0.56375 2.287763,0.84375 3.566406,0.84375 1.402641,0 2.658667,-0.31138 3.683594,-0.98633 0.44599,-0.2937 0.787401,-0.68508 1.074219,-1.09961 a 1,1 0 0 0 -0.08398,0.42383 c 0.631787,0.94767 1.789113,1.35742 3.052735,1.35742 h 1.429687 c 0.960008,0 1.874403,-0.30553 2.583985,-0.90234 0.767014,-0.62922 1.185547,-1.60468 1.185547,-2.62305 v -8.91406 c 0,-1.015 -0.40728,-1.9833 -1.146485,-2.64844 -0.701179,-0.66624 -1.640308,-1.02929 -2.623047,-1.02929 h -1.642578 c -0.875861,0 -1.719471,0.26571 -2.40039,0.7832 -0.32868,0.2498 -0.585495,0.57379 -0.796875,0.92578 -0.31383,-0.36331 -0.521002,-0.82861 -0.917969,-1.10156 -0.922837,-0.64937 -2.106198,-0.91016 -3.490235,-0.91016 z m 0,2 c 1.128449,0 1.888128,0.22526 2.34375,0.54688 a 1.0001,1.0001 0 0 0 0.01172,0.008 c 0.560434,0.3843 0.982619,0.8857 1.300781,1.57227 a 1.0001,1.0001 0 0 0 0.01172,0.0273 c 0.109655,0.21931 0.169922,0.4597 0.169922,0.76953 0,0.22747 0.07168,0.57758 0.337891,0.84375 0.266213,0.26617 0.616362,0.33789 0.84375,0.33789 0.227527,0 0.577636,-0.0718 0.84375,-0.33789 0.266114,-0.26612 0.33789,-0.61622 0.33789,-0.84375 0,-0.46276 -0.152498,-0.8807 -0.289062,-1.30273 0.07633,-0.46037 0.220233,-0.72777 0.503906,-0.94336 0.333176,-0.25321 0.686144,-0.375 1.189453,-0.375 h 1.642578 c 0.551418,0 0.90203,0.14407 1.253907,0.48242 a 1.0001,1.0001 0 0 0 0.0293,0.0273 c 0.346588,0.30808 0.486329,0.60775 0.486329,1.16797 v 8.91406 c 0,0.56023 -0.129843,0.81667 -0.453125,1.08008 a 1.0001,1.0001 0 0 0 -0.01563,0.0117 c -0.343943,0.29103 -0.723051,0.43359 -1.300782,0.43359 h -1.429687 c -0.886262,0 -1.209182,-0.19756 -1.388672,-0.46679 a 1,1 0 0 0 -1.179688,-0.31836 c 0.07229,-0.25912 0.222657,-0.49487 0.222657,-0.76953 a 1,1 0 0 0 -1,-1 1,1 0 0 0 -1,1 c 0,0.46961 -0.156713,0.78027 -0.798828,1.20312 -0.638189,0.42027 -1.469717,0.65625 -2.582032,0.65625 -0.989984,0 -1.849268,-0.20786 -2.632812,-0.61523 -0.751021,-0.40995 -1.340724,-1.01273 -1.808594,-1.89649 -0.447712,-0.84568 -0.705078,-1.99798 -0.705078,-3.48633 v -0.63867 c 0,-2.08483 0.501635,-3.54747 1.414062,-4.56054 5.64e-4,-6.3e-4 0.0014,-0.001 0.002,-0.002 0.958039,-1.0405 2.088143,-1.52539 3.638671,-1.52539 z m 5.457032,1.25977 0.01367,0.0273 c -0.0022,-0.005 -0.0075,-0.007 -0.0098,-0.0117 -0.0024,-0.005 -0.0015,-0.0108 -0.0039,-0.0156 z"
         id="path275" />
      <path
         style="color:#000000;-inkscape-font-specification:'Moirai One';fill:#000000;stroke-linecap:round;stroke-linejoin:round;stroke:none"
         d="m 59.923828,110.12891 c -1.468233,0 -2.810749,0.44561 -3.867187,1.33007 -1.0783,0.90277 -1.666016,2.21669 -1.666016,3.65625 0,1.48867 0.570189,2.84161 1.644531,3.79102 a 1.0001,1.0001 0 0 0 0.01172,0.01 c 1.055146,0.90791 2.403424,1.36718 3.876953,1.36718 a 1,1 0 0 0 1,-1 1,1 0 0 0 -1,-1 c -1.076228,0 -1.875876,-0.28841 -2.5625,-0.875 l -0.002,-0.002 c -0.668336,-0.59153 -0.96875,-1.26586 -0.96875,-2.29102 0,-0.95369 0.283274,-1.56551 0.949219,-2.12304 0.687806,-0.57584 1.496698,-0.86328 2.583984,-0.86328 h 4.746094 c 1.061358,0 1.755895,0.24061 2.222656,0.625 0.509199,0.41933 0.669922,0.76892 0.669922,1.29687 0,0.53719 -0.186459,0.94448 -0.488281,1.33399 -0.180643,-0.0779 -0.337852,-0.19428 -0.529297,-0.25196 -0.483806,-0.15182 -0.993195,-0.22656 -1.511719,-0.22656 -0.213855,0 -0.524956,0.0423 -0.810547,0.28711 -0.285591,0.2448 -0.402344,0.63923 -0.402344,0.89453 1e-6,0.25535 0.116842,0.65171 0.402344,0.89649 0.285503,0.24477 0.596576,0.2871 0.810547,0.2871 0.314805,0 0.58157,0.0502 0.824219,0.14454 a 1.0001,1.0001 0 0 0 0.0625,0.0215 c 0.290525,0.0917 0.547907,0.21988 0.787109,0.38281 0.434371,0.31712 0.772397,0.7335 1.033203,1.32032 a 1.0001,1.0001 0 0 0 0.01563,0.0312 c 0.271018,0.55797 0.388645,1.14617 0.355469,1.82617 a 1.0001,1.0001 0 0 0 0,0.0156 c -0.03346,0.98717 -0.335227,1.71323 -0.939453,2.35156 -0.544316,0.55571 -1.364127,0.88086 -2.685547,0.88086 h -4.015625 c -1.635219,0 -2.737639,-0.35597 -3.429687,-0.92382 -0.699942,-0.61128 -1.015625,-1.30739 -1.015625,-2.36524 a 1,1 0 0 0 -1,-1 1,1 0 0 0 -1,1 c 0,1.53242 0.595616,2.92038 1.71289,3.88867 a 1.0001,1.0001 0 0 0 0.01953,0.0156 c 1.174362,0.97012 2.784142,1.38476 4.712891,1.38476 h 4.015625 c 1.676538,0 3.125912,-0.46491 4.123047,-1.48828 a 1.0001,1.0001 0 0 0 0.0098,-0.01 c 0.932364,-0.98144 1.439389,-2.25935 1.488281,-3.66016 0.04619,-0.97331 -0.13759,-1.91496 -0.548828,-2.76953 -0.266567,-0.59553 -0.72898,-1.02164 -1.164063,-1.46875 0.698979,-0.79209 1.167969,-1.73955 1.167969,-2.79883 0,-1.09461 -0.528466,-2.12535 -1.398438,-2.8418 -0.912407,-0.75139 -2.121668,-1.08007 -3.49414,-1.08007 z m 6.597656,5.40234 0.0625,0.0215 c -0.0092,-0.004 -0.02003,-0.002 -0.0293,-0.006 -0.01177,-0.004 -0.0214,-0.0119 -0.0332,-0.0156 z"
         id="path277" />
      <path
         style="color:#000000;-inkscape-font-specification:'Moirai One';fill:#000000;stroke-linecap:round;stroke-linejoin:round;stroke:none"
         d="m 77.386719,106.7832 c -1.002748,0 -1.960866,0.40267 -2.65625,1.11914 -0.597641,0.59912 -0.905125,1.40059 -1,2.2461 -0.962527,0.0247 -1.882312,0.38817 -2.558594,1.06445 -0.699578,0.69958 -1.083984,1.65552 -1.083984,2.6543 v 1.42969 c 0,0.98466 0.388942,1.92995 1.083984,2.625 0.656356,0.65635 1.545234,1.00452 2.476562,1.04882 v 3.53711 c 0,1.01322 0.379879,1.98144 1.083985,2.68555 a 1.0001,1.0001 0 0 0 0.01367,0.0137 c 0.702784,0.67576 1.650618,1.03906 2.640625,1.03906 h 2.46289 c 0.960902,0 1.879542,-0.30219 2.619141,-0.88086 0.781059,-0.59601 1.28047,-1.49375 1.386719,-2.47656 a 1,1 0 0 0 -0.886719,-1.10156 1,1 0 0 0 -1.101563,0.88672 c -0.05565,0.51474 -0.222528,0.80904 -0.613281,1.10547 a 1.0001,1.0001 0 0 0 -0.01367,0.0117 c -0.395086,0.31042 -0.812894,0.45507 -1.390625,0.45507 h -2.46289 c -0.547101,0 -0.895027,-0.14585 -1.244141,-0.47851 -0.344747,-0.34787 -0.494141,-0.69538 -0.494141,-1.25977 v -4.32031 c 0,-0.22756 -0.07382,-0.57767 -0.339843,-0.84375 -0.26602,-0.26608 -0.616089,-0.33789 -0.84375,-0.33789 h -0.638672 c -0.542647,0 -0.885151,-0.14296 -1.240235,-0.49805 -0.359619,-0.35962 -0.498046,-0.69474 -0.498046,-1.21093 v -1.42969 c 0,-0.54264 0.142964,-0.88516 0.498046,-1.24024 0.355084,-0.35508 0.697588,-0.49804 1.240235,-0.49804 h 0.609375 c 0.237663,0 0.594047,-0.0745 0.865234,-0.34571 0.271188,-0.27118 0.347656,-0.62952 0.347656,-0.86718 v -0.33399 c 0,-0.56878 0.147493,-0.91898 0.498047,-1.26953 a 1.0001,1.0001 0 0 0 0.01172,-0.0137 c 0.358488,-0.37228 0.694649,-0.51563 1.228516,-0.51563 h 1.154297 c 0.585868,0 0.956567,0.14711 1.300781,0.46485 a 1.0001,1.0001 0 0 0 0.01367,0.0137 c 0.331125,0.29433 0.484375,0.62221 0.484375,1.25976 v 0.39454 c 0,0.23766 0.07648,0.596 0.347656,0.86718 0.271174,0.27119 0.629504,0.34571 0.867187,0.34571 h 1.185547 c 0.542647,0 0.904438,0.14698 1.283203,0.51172 0.367657,0.35403 0.515625,0.69759 0.515625,1.25781 v 1.30859 c 0,0.55602 -0.154198,0.91667 -0.52539,1.29102 -0.375646,0.35866 -0.734923,0.50781 -1.273438,0.50781 h -2.341797 a 1,1 0 0 0 -1,1 1,1 0 0 0 1,1 h 2.341797 c 0.998778,0 1.955418,-0.38039 2.671875,-1.07031 a 1.0001,1.0001 0 0 0 0.01367,-0.0137 c 0.717845,-0.71785 1.113281,-1.69309 1.113281,-2.71485 v -1.30859 c 0,-1.02176 -0.399386,-1.99665 -1.126953,-2.69727 -0.716457,-0.68992 -1.673097,-1.07226 -2.671875,-1.07226 h -0.474609 c -0.08749,-0.90829 -0.415801,-1.7622 -1.076172,-2.35352 -0.70973,-0.65188 -1.65535,-0.99219 -2.648437,-0.99219 z"
         id="path279" />
      <path
         style="color:#000000;-inkscape-font-specification:'Moirai One';fill:#000000;stroke-linecap:round;stroke-linejoin:round;stroke:none"
         d="m 95.396484,109.79492 c -1.704563,0 -3.259889,0.37141 -4.601562,1.13477 a 1.0001,1.0001 0 0 0 -0.0078,0.004 c -1.294316,0.74935 -2.335218,1.77562 -3.070312,3.03907 a 1.0001,1.0001 0 0 0 -0.0059,0.0117 c -0.714022,1.26681 -1.072265,2.69 -1.072265,4.20312 0,1.64952 0.375381,3.15429 1.146484,4.43945 a 1.0001,1.0001 0 0 0 0.01172,0.0176 c 0.781702,1.24154 1.86255,2.2278 3.185547,2.91211 a 1.0001,1.0001 0 0 0 0.0176,0.008 c 1.345167,0.66118 2.856788,0.98633 4.488281,0.98633 1.840904,0 3.485905,-0.32772 4.904303,-1.01367 h 0.002 c 1.49059,-0.71189 2.578,-1.93905 3.09961,-3.50391 a 1,1 0 0 0 -0.63281,-1.26562 1,1 0 0 0 -1.26367,0.63281 c -0.37002,1.11006 -1.00681,1.82848 -2.068367,2.33399 a 1.0001,1.0001 0 0 0 -0.0059,0.004 c -1.096196,0.53041 -2.428841,0.8125 -4.035156,0.8125 -1.366531,0 -2.549686,-0.26687 -3.595703,-0.7793 -1.020643,-0.53002 -1.799945,-1.24325 -2.394531,-2.18359 -0.564356,-0.9441 -0.859375,-2.05199 -0.859375,-3.40039 0,-1.20243 0.27106,-2.25211 0.8125,-3.21484 0.562067,-0.96328 1.323907,-1.71907 2.33789,-2.30664 1.009923,-0.57337 2.19092,-0.8711 3.607422,-0.8711 h 0.457032 c 1.40546,0 2.471166,0.28521 3.267578,0.78906 a 1.0001,1.0001 0 0 0 0.01953,0.0117 c 0.87958,0.52774 1.49539,1.16798 1.91407,1.95508 0.42919,0.80689 0.61769,1.59088 0.62695,2.39453 h -7.410161 a 1,1 0 0 0 -1,1 1,1 0 0 0 1,1 h 7.453131 c 0.47436,0 0.98826,-0.16267 1.36328,-0.49609 a 1.0001,1.0001 0 0 0 0.043,-0.041 c 0.36586,-0.36585 0.56641,-0.90801 0.56641,-1.40625 0,-1.16387 -0.30224,-2.31016 -0.87696,-3.39062 -0.59351,-1.1158 -1.49725,-2.03422 -2.64062,-2.72266 -1.189668,-0.74979 -2.652885,-1.09375 -4.326179,-1.09375 z"
         id="path281" />
      <path
         style="color:#000000;-inkscape-font-specification:'Moirai One';fill:#000000;stroke-linecap:round;stroke-linejoin:round;stroke:none"
         d="m 116.41797,109.82617 c -0.8813,0 -1.73329,0.23714 -2.47461,0.69727 a 1.0001,1.0001 0 0 0 -0.0137,0.008 c -0.51075,0.32834 -0.86108,0.82286 -1.21875,1.30469 -0.19079,-0.30045 -0.39239,-0.59513 -0.66211,-0.82227 -0.65165,-0.56752 -1.4885,-0.88476 -2.35352,-0.88476 h -1.67383 c -0.96849,0 -1.89743,0.39872 -2.57031,1.0957 -0.66575,0.67106 -1.04492,1.57828 -1.04492,2.52148 v 8.91407 c 0,0.96163 0.37599,1.88575 1.05273,2.5625 a 1.0001,1.0001 0 0 0 0.0137,0.0137 c 0.68003,0.65283 1.59646,1.00976 2.54882,1.00976 h 1.67383 c 0.95237,0 1.86771,-0.35989 2.53125,-1.02343 0.67675,-0.67676 1.05469,-1.60088 1.05469,-2.5625 a 1,1 0 0 0 -1,-1 1,1 0 0 0 -1,1 c 0,0.49867 -0.1314,0.81109 -0.46875,1.14843 -0.30999,0.31 -0.60926,0.4375 -1.11719,0.4375 h -1.67383 c -0.50364,0 -0.82129,-0.13244 -1.15234,-0.44726 -0.33101,-0.33409 -0.46289,-0.64424 -0.46289,-1.13867 v -8.91407 c 0,-0.47177 0.12474,-0.77708 0.4668,-1.11914 a 1.0001,1.0001 0 0 0 0.0137,-0.0137 c 0.34083,-0.35446 0.64535,-0.48437 1.13476,-0.48437 h 1.67383 c 0.43027,0 0.72391,0.11169 1.04492,0.39257 a 1.0001,1.0001 0 0 0 0.0176,0.0156 c 0.13844,0.11536 0.25922,0.26045 0.36719,0.46289 a 1.0001,1.0001 0 0 0 0.041,0.0703 c 0.0362,0.0563 0.11523,0.25752 0.11523,0.64453 v 0.97461 c 0,0.22749 0.0717,0.57761 0.33789,0.84375 0.26621,0.26615 0.61636,0.33789 0.84375,0.33789 0.22746,0 0.57758,-0.0717 0.84375,-0.33789 0.26617,-0.26621 0.33984,-0.61636 0.33984,-0.84375 0,-0.50769 0.11433,-0.9566 0.36133,-1.40429 0.2462,-0.44623 0.56651,-0.7855 0.99805,-1.06446 0.43277,-0.26698 0.87661,-0.39453 1.41211,-0.39453 1.02248,0 1.69355,0.26494 2.22461,0.78125 0.52537,0.51078 0.79101,1.15691 0.79101,2.17383 0,0.71692 -0.13934,1.27844 -0.39257,1.74023 a 1.0001,1.0001 0 0 0 -0.0117,0.0215 c -0.24361,0.47199 -0.52646,0.7476 -0.89844,0.93359 a 1.0001,1.0001 0 0 0 -0.0195,0.01 c -0.79548,0.42023 -1.55002,0.42352 -2.6211,-0.10352 a 1,1 0 0 0 -1.33789,0.45508 1,1 0 0 0 0.45508,1.33789 c 1.48113,0.72881 3.07526,0.79052 4.42774,0.0801 0.753,-0.38008 1.35656,-1.00904 1.75976,-1.7832 0.43312,-0.79372 0.63867,-1.70819 0.63867,-2.69141 0,-1.41692 -0.46351,-2.69847 -1.39843,-3.60742 -0.92924,-0.90343 -2.20583,-1.34766 -3.61719,-1.34766 z m -3.57031,2.16211 0.041,0.0703 c -0.009,-0.0162 -0.0243,-0.0269 -0.0332,-0.043 -0.005,-0.008 -0.003,-0.0192 -0.008,-0.0273 z"
         id="path283" />
      <path
         style="color:#000000;-inkscape-font-specification:'Moirai One';fill:#000000;stroke-linecap:round;stroke-linejoin:round;stroke:none"
         d="m 137.50195,100.97266 c -1.34811,0 -2.59989,0.41254 -3.60742,1.22265 -1.04538,0.8363 -1.65664,2.1161 -1.88476,3.64453 l -2.37305,15.78907 0.002,-0.004 c -0.17418,1.11976 0.0553,2.22933 0.70508,3.0957 a 1.0001,1.0001 0 0 0 0.0117,0.0156 c 0.66447,0.85052 1.65008,1.38537 2.76367,1.55859 a 1.0001,1.0001 0 0 0 0.008,0.002 l 1.85547,0.27343 a 1.0001,1.0001 0 0 0 0.0156,0.002 c 0.9981,0.13133 2.00385,-0.13416 2.80078,-0.74219 0.80629,-0.60086 1.35216,-1.47892 1.51172,-2.46289 a 1.0001,1.0001 0 0 0 0,-0.002 l 0.90429,-5.70507 c 0.30471,0.28564 0.57698,0.62478 0.91211,0.85937 a 1.0001,1.0001 0 0 0 0.0117,0.01 c 0.77756,0.52674 1.67502,0.81054 2.59961,0.81054 0.93385,0 1.83512,-0.3064 2.58203,-0.87304 a 1.0001,1.0001 0 0 0 0.0176,-0.0117 c 0.64712,-0.51323 1.20469,-1.08184 1.66602,-1.70313 l 0.006,-0.008 1.02929,-1.36133 a 1,1 0 0 0 -0.19531,-1.40039 1,1 0 0 0 -1.40039,0.19531 l -1.03516,1.36915 a 1.0001,1.0001 0 0 0 -0.006,0.008 c -0.34576,0.46678 -0.77658,0.90589 -1.29687,1.32031 -0.4275,0.32282 -0.84298,0.46484 -1.36719,0.46484 -0.53506,0 -0.9953,-0.14251 -1.47461,-0.46679 h -0.002 c -0.52147,-0.36679 -1.00683,-0.82261 -1.45703,-1.38086 l 0.0352,0.0449 c -0.12793,-0.17915 -0.31993,-0.37143 -0.5957,-0.48633 -0.27576,-0.1149 -0.60802,-0.11624 -0.85742,-0.0449 a 1.0001,1.0001 0 0 0 -0.041,0.0117 c -0.51693,0.17224 -0.82126,0.69412 -0.90429,1.06836 a 1.0001,1.0001 0 0 0 -0.0117,0.0586 l -1.09375,6.90235 c -0.0834,0.51412 -0.28692,0.85161 -0.73438,1.18359 a 1.0001,1.0001 0 0 0 -0.0117,0.01 c -0.41887,0.32117 -0.78972,0.42071 -1.33007,0.34961 l -1.8418,-0.27148 h 0.008 c -0.70703,-0.10998 -1.13596,-0.36662 -1.48437,-0.80859 -0.31924,-0.42929 -0.43722,-0.87684 -0.32813,-1.57813 a 1.0001,1.0001 0 0 0 0.002,-0.006 l 2.37305,-15.78906 c 0.17752,-1.18934 0.57908,-1.91717 1.15625,-2.37891 a 1.0001,1.0001 0 0 0 0.002,-0.002 c 0.65522,-0.52737 1.39239,-0.7832 2.35547,-0.7832 0.64462,0 1.2798,0.15576 1.94727,0.49804 a 1.0001,1.0001 0 0 0 0.008,0.004 c 0.5817,0.29085 1.09034,0.81553 1.52734,1.70703 a 1.0001,1.0001 0 0 0 0.004,0.006 l 1.58203,3.16406 c 0.15992,0.31971 0.66133,0.67578 1.07617,0.67578 0.15062,0 0.341,-0.0142 0.57032,-0.1289 0.22931,-0.11469 0.47147,-0.37926 0.56054,-0.64649 l -0.0352,0.0899 1.49218,-3.34571 h -0.002 c 0.35235,-0.78856 0.7889,-1.2415 1.35156,-1.51562 a 1.0001,1.0001 0 0 0 0.01,-0.006 c 0.69201,-0.346 1.34172,-0.50195 1.98633,-0.50195 0.5279,0 1.02772,0.10872 1.53515,0.33789 a 1.0001,1.0001 0 0 0 0.01,0.004 c 0.48932,0.21408 0.90531,0.5409 1.28125,1.03125 a 1.0001,1.0001 0 0 0 0.01,0.0117 c 0.33374,0.42081 0.58415,1.0148 0.70703,1.83985 a 1.0001,1.0001 0 0 0 0,0.002 l 2.37304,15.72851 a 1.0001,1.0001 0 0 0 0.002,0.004 c 0.11029,0.70905 -0.004,1.18676 -0.31836,1.64063 -0.32617,0.45019 -0.64865,0.64455 -1.16797,0.71289 a 1.0001,1.0001 0 0 0 -0.0156,0.002 l -1.85547,0.27344 a 1.0001,1.0001 0 0 0 -0.004,0.002 c -0.73612,0.11202 -1.19124,-0.007 -1.58985,-0.30078 -0.41712,-0.32236 -0.62308,-0.66691 -0.70898,-1.21094 a 1.0001,1.0001 0 0 0 -0.002,-0.006 l -0.72266,-4.38672 a 1,1 0 0 0 -1.15039,-0.82422 1,1 0 0 0 -0.82422,1.1504 l 0.72266,4.3789 c 2.3e-4,0.001 0.002,0.002 0.002,0.004 v 0.004 c 0.15845,0.99038 0.68087,1.87929 1.47266,2.48633 a 1.0001,1.0001 0 0 0 0.0137,0.01 c 0.85781,0.63643 1.96086,0.84337 3.08789,0.67187 l 1.83594,-0.27148 c 1.01841,-0.134 1.9327,-0.69229 2.53711,-1.5332 a 1.0001,1.0001 0 0 0 0.008,-0.0117 c 0.61562,-0.88328 0.82754,-1.98392 0.6543,-3.09766 l 0.002,0.004 -2.37305,-15.72657 v -0.002 c -0.16087,-1.07842 -0.52055,-2.02496 -1.11719,-2.7793 -0.55484,-0.72042 -1.2495,-1.28446 -2.05273,-1.63671 -0.74838,-0.33705 -1.54291,-0.51172 -2.35156,-0.51172 -0.9767,0 -1.94751,0.24878 -2.87696,0.71289 -1.01688,0.49704 -1.79621,1.37997 -2.29492,2.49609 a 1.0001,1.0001 0 0 0 -0.002,0 l -0.79297,1.7832 -0.83203,-1.66406 -0.004,-0.008 c -0.57496,-1.16952 -1.38244,-2.08148 -2.41601,-2.60156 -0.001,-6.1e-4 -0.003,6e-4 -0.004,0 -0.91347,-0.46781 -1.87878,-0.71875 -2.85547,-0.71875 z"
         id="path285" />
      <path
         style="color:#000000;-inkscape-font-specification:'Moirai One';fill:#000000;stroke-linecap:round;stroke-linejoin:round;stroke:none"
         d="m 161.99219,110.12891 c -1.03481,0 -2.01452,0.35436 -2.71485,1.05468 a 1.0001,1.0001 0 0 0 -0.0137,0.0137 c -0.65284,0.68003 -1.00976,1.59645 -1.00976,2.54882 v 8.94532 c 0,0.92891 0.33897,1.82378 0.96289,2.50195 a 1.0001,1.0001 0 0 0 0.0156,0.0137 c 0.6368,0.66449 1.5302,1.03906 2.45508,1.03906 H 164 c 0.89902,0 1.77146,-0.38989 2.38086,-1.05468 a 1.0001,1.0001 0 0 0 0.0117,-0.0156 c 0.59909,-0.68079 0.91992,-1.56499 0.91992,-2.48437 v -8.94532 c 0,-0.95237 -0.35693,-1.86879 -1.00977,-2.54882 -0.67897,-0.70727 -1.64836,-1.06836 -2.66796,-1.06836 z m 0,2 h 1.64258 c 0.60293,0 0.932,0.14629 1.22656,0.45312 0.32069,0.33406 0.45117,0.65613 0.45117,1.16406 v 8.94532 c 0,0.49535 -0.12893,0.82239 -0.41602,1.15234 -0.2788,0.30105 -0.50168,0.40234 -0.89648,0.40234 h -2.3125 c -0.44993,0 -0.70927,-0.1156 -1.00195,-0.41796 -0.30331,-0.33282 -0.43164,-0.65012 -0.43164,-1.13672 v -8.94532 c 0,-0.50291 0.13345,-0.82182 0.44726,-1.15234 0.31208,-0.30897 0.66749,-0.46484 1.29102,-0.46484 z"
         id="path7887" />
      <path
         style="color:#000000;-inkscape-font-specification:'Moirai One';fill:#000000;stroke-linecap:round;stroke-linejoin:round;stroke:none"
         d="m 162.7832,101.30664 c -1.24699,0 -2.40293,0.44893 -3.23633,1.30469 -0.83273,0.83633 -1.26171,1.98418 -1.26171,3.22461 0,1.24353 0.42878,2.39557 1.26562,3.23242 0.83685,0.83685 1.98889,1.26562 3.23242,1.26562 1.24353,0 2.39558,-0.42877 3.23242,-1.26562 0.83685,-0.83685 1.26563,-1.98889 1.26563,-3.23242 0,-1.23947 -0.4283,-2.38649 -1.25977,-3.22266 -0.83362,-0.85783 -1.98976,-1.30664 -3.23828,-1.30664 z m 0,2 c 0.81869,0 1.34244,0.22247 1.80664,0.70117 a 1.0001,1.0001 0 0 0 0.0117,0.01 c 0.4612,0.4612 0.67969,0.99314 0.67969,1.81836 0,0.82523 -0.21849,1.35716 -0.67969,1.81836 -0.4612,0.4612 -0.99314,0.67968 -1.81836,0.67968 -0.82522,0 -1.35715,-0.21848 -1.81836,-0.67968 -0.46119,-0.4612 -0.67968,-0.99313 -0.67968,-1.81836 0,-0.82522 0.21849,-1.35716 0.67968,-1.81836 a 1.0001,1.0001 0 0 0 0.0117,-0.01 c 0.4642,-0.4787 0.98795,-0.70117 1.80664,-0.70117 z"
         id="path7883" />
      <path
         style="color:#000000;-inkscape-font-specification:'Moirai One';fill:#000000;stroke-linecap:round;stroke-linejoin:round;stroke:none"
         d="m 181.00586,109.82617 c -1.0328,0 -1.99232,0.23021 -2.8125,0.71485 -0.63697,0.36047 -1.10647,0.90427 -1.53125,1.47656 -0.15958,-0.29314 -0.30789,-0.595 -0.54688,-0.83399 -0.67675,-0.67675 -1.60087,-1.05468 -2.5625,-1.05468 h -1.46093 c -0.97632,0 -1.91098,0.41874 -2.58008,1.13672 -0.65863,0.68817 -1.03516,1.59598 -1.03516,2.54101 v 8.85352 c 0,0.94796 0.3807,1.86116 1.05274,2.5332 0.67675,0.67676 1.60087,1.05273 2.5625,1.05273 h 1.58203 c 0.95921,0 1.88159,-0.38046 2.54101,-1.06445 0.66575,-0.67106 1.04493,-1.57829 1.04493,-2.52148 a 1,1 0 0 0 -1,-1 1,1 0 0 0 -1,1 c 0,0.47178 -0.12474,0.77512 -0.4668,1.11718 a 1.0001,1.0001 0 0 0 -0.0137,0.0156 c -0.31379,0.32686 -0.6068,0.45312 -1.10547,0.45312 h -1.58203 c -0.49868,0 -0.8111,-0.1314 -1.14844,-0.46875 -0.34206,-0.34206 -0.4668,-0.6454 -0.4668,-1.11718 v -8.85352 c 0,-0.47178 0.12881,-0.79638 0.48047,-1.16211 a 1.0001,1.0001 0 0 0 0.0137,-0.0137 c 0.34448,-0.37203 0.64095,-0.50195 1.1211,-0.50195 h 1.46093 c 0.49868,0 0.8111,0.1314 1.14844,0.46875 0.32792,0.32791 0.46875,0.65757 0.46875,1.20898 v 1.03516 c 0,0.22757 0.0719,0.57767 0.33789,0.84375 0.26602,0.26607 0.61609,0.33789 0.84375,0.33789 0.22757,0 0.57768,-0.0719 0.84375,-0.33789 0.26608,-0.26602 0.33789,-0.61609 0.33789,-0.84375 l -0.002,0.084 c 0.0484,-0.56454 0.21059,-1.06451 0.5,-1.54687 0.27596,-0.45993 0.64039,-0.81554 1.15234,-1.10352 a 1.0001,1.0001 0 0 0 0.0215,-0.0117 c 0.47603,-0.28263 1.05232,-0.4375 1.80078,-0.4375 0.74973,0 1.34069,0.17093 1.86133,0.50781 a 1.0001,1.0001 0 0 0 0.0176,0.0117 c 0.53704,0.3317 0.93829,0.7679 1.24804,1.3711 0.3101,0.60388 0.4668,1.26516 0.4668,2.03711 v 6.9375 c 0,0.46768 -0.12752,0.76896 -0.46289,1.10742 -0.33104,0.31482 -0.6487,0.44726 -1.15235,0.44726 a 1,1 0 0 0 -1,1 1,1 0 0 0 1,1 c 0.95237,0 1.86684,-0.35692 2.54688,-1.00976 a 1.0001,1.0001 0 0 0 0.0156,-0.0137 c 0.67204,-0.67204 1.05274,-1.58329 1.05274,-2.53125 v -6.9375 c 0,-1.05343 -0.2269,-2.0542 -0.6875,-2.95118 -0.45966,-0.89511 -1.1319,-1.63243 -1.9707,-2.15234 -0.8563,-0.55102 -1.86424,-0.82422 -2.93555,-0.82422 z"
         id="path289" />
      <path
         style="color:#000000;-inkscape-font-specification:'Moirai One';fill:#000000;stroke-linecap:round;stroke-linejoin:round;-inkscape-stroke:none;stroke:none"
         d="m 201.32812,101.30664 c -1.0196,0 -1.98798,0.35908 -2.68359,1.05469 a 1.0001,1.0001 0 0 0 -0.0137,0.0137 c -0.64822,0.67523 -1.00977,1.57914 -1.00977,2.51758 v 3.71289 a 1,1 0 0 0 1,1 1,1 0 0 0 1,-1 v -3.71289 c 0,-0.47615 0.12769,-0.78639 0.44532,-1.1211 0.31684,-0.31428 0.66263,-0.46484 1.26171,-0.46484 h 1.64454 c 0.62831,0 0.9661,0.1513 1.25586,0.45313 a 1.0001,1.0001 0 0 0 0.0137,0.0156 c 0.34206,0.34206 0.46679,0.64541 0.46679,1.11719 v 17.79883 c 0,0.51718 -0.1282,0.82637 -0.42187,1.13281 -0.29618,0.30905 -0.55742,0.42187 -1.01172,0.42187 h -2.3125 c -0.44709,0 -0.71787,-0.1115 -1.01172,-0.39257 -0.26959,-0.25787 -0.39062,-0.52383 -0.39062,-1.04102 v -0.39648 c 0,-0.22749 -0.0717,-0.57761 -0.33789,-0.84375 -0.26622,-0.26615 -0.61832,-0.33789 -0.84571,-0.33789 -0.22746,0 -0.57758,0.0717 -0.84375,0.33789 -0.26616,0.26621 -0.33789,0.61636 -0.33789,0.84375 l 0.01,-0.13672 c -0.0779,0.56094 -0.26248,0.93474 -0.55469,1.24023 a 1.0001,1.0001 0 0 0 -0.0156,0.0176 c -0.32221,0.35289 -0.68506,0.59816 -1.12696,0.76758 -0.48108,0.16364 -0.95851,0.24609 -1.44922,0.24609 -1.16224,0 -2.01408,-0.20293 -2.58007,-0.51367 -0.6264,-0.36482 -1.05358,-0.79787 -1.34571,-1.33398 -0.32978,-0.62679 -0.54668,-1.29056 -0.65234,-2.00977 v -0.004 c -0.11521,-0.8074 -0.17188,-1.57985 -0.17188,-2.31836 v -1.12695 c 0,-1.0198 0.17137,-1.93931 0.50586,-2.78711 0.33745,-0.8053 0.82757,-1.41465 1.52539,-1.89648 a 1.0001,1.0001 0 0 0 0.0137,-0.008 c 0.64718,-0.46227 1.52474,-0.72656 2.73437,-0.72656 0.90365,0 1.57883,0.17585 2.08008,0.47071 a 1.0001,1.0001 0 0 0 0.01,0.006 c 0.57719,0.32982 0.95191,0.70952 1.20118,1.16407 a 1.0001,1.0001 0 0 0 0.0117,0.0215 c 0.28301,0.4874 0.41407,0.96742 0.41407,1.50586 a 1,1 0 0 0 1,1 1,1 0 0 0 1,-1 c 0,-0.87712 -0.23667,-1.7308 -0.67969,-2.49805 -0.43958,-0.79692 -1.11433,-1.44652 -1.95117,-1.92578 -0.87658,-0.51367 -1.9238,-0.74414 -3.08594,-0.74414 -1.50547,0 -2.83502,0.3419 -3.89062,1.09375 -1.00019,0.69224 -1.76157,1.64066 -2.23438,2.77539 a 1.0001,1.0001 0 0 0 -0.006,0.0176 c -0.43434,1.09727 -0.64844,2.28237 -0.64844,3.53125 v 1.12695 c 0,0.84224 0.0635,1.71067 0.19141,2.60547 a 1.0001,1.0001 0 0 0 0,0.002 c 0.13752,0.93971 0.42898,1.8357 0.86719,2.66601 a 1.0001,1.0001 0 0 0 0.006,0.01 c 0.47681,0.87832 1.20416,1.59784 2.11132,2.12304 a 1.0001,1.0001 0 0 0 0.0176,0.01 c 0.97548,0.53908 2.16777,0.76367 3.55664,0.76367 0.71957,0 1.43246,-0.12191 2.1211,-0.35937 a 1.0001,1.0001 0 0 0 0.0273,-0.01 c 0.72361,-0.27447 1.36596,-0.71478 1.89063,-1.28516 0.0455,-0.0477 0.0412,-0.12782 0.084,-0.17773 0.12809,0.19556 0.21603,0.41681 0.38672,0.58008 0.63911,0.61133 1.503,0.94726 2.39453,0.94726 h 2.3125 c 0.92488,0 1.82023,-0.37457 2.45703,-1.03906 0.63929,-0.6671 0.97656,-1.57251 0.97656,-2.51562 V 104.8928 c 0,-0.94466 -0.37919,-1.85208 -1.04687,-2.52344 -0.68347,-0.70751 -1.65811,-1.0625 -2.68945,-1.0625 z"
         id="path291" />
    </g>
  </g>
</svg>
